<svg width="131" height="123" viewBox="0 0 131 123" fill="none" xmlns="http://www.w3.org/2000/svg">
<g clip-path="url(#clip0_3757_35469)">
<path d="M95.2051 113.433C113.066 113.433 127.545 100.308 127.545 84.1175C127.545 67.9268 113.066 54.8016 95.2051 54.8016C77.3446 54.8016 62.8657 67.9268 62.8657 84.1175C62.8657 100.308 77.3446 113.433 95.2051 113.433Z" fill="#ECF3FE"/>
<path d="M56.104 113.093C86.658 113.093 111.427 90.2192 111.427 62.003C111.427 33.7867 86.658 10.913 56.104 10.913C25.5501 10.913 0.78125 33.7867 0.78125 62.003C0.78125 90.2192 25.5501 113.093 56.104 113.093Z" fill="#ECF3FE"/>
<path d="M69.6171 115.289C99.5285 115.289 123.777 113.788 123.777 111.936C123.777 110.085 99.5285 108.584 69.6171 108.584C39.7056 108.584 15.4575 110.085 15.4575 111.936C15.4575 113.788 39.7056 115.289 69.6171 115.289Z" fill="#D7E4F9"/>
<path opacity="0.16" d="M70.149 102.844C55.3263 105.594 40.5072 108.339 25.6845 111.089C24.2965 111.475 23.6221 110.06 23.8504 108.932C28.7211 85.5968 28.1538 61.5417 22.1912 38.4587C21.9128 37.3199 22.5016 35.83 23.9218 35.9967C38.823 36.6175 53.7242 37.2419 68.6254 37.8627C69.9314 37.8911 71.2909 38.8985 71.6441 40.1472C76.7182 59.8283 77.1964 80.2863 73.0572 100.18C72.7503 101.472 71.4657 102.621 70.149 102.844Z" fill="#003889"/>
<path d="M74.3381 106.034C58.1737 108.095 42.0094 110.156 25.845 112.213C24.3249 112.547 23.6826 110.979 23.9966 109.776C30.6943 84.8909 31.5721 58.8954 26.5622 33.62C26.3339 32.3749 27.0582 30.7998 28.5819 31.0694C44.6249 32.6516 60.6644 34.2302 76.7074 35.8123C78.1133 35.9223 79.5192 37.0929 79.8261 38.4622C84.0831 60.0128 83.3373 82.1168 77.6423 103.334C77.2284 104.71 75.769 105.874 74.3381 106.034Z" fill="#3B82F4"/>
<path opacity="0.23" d="M72.961 103.675C58.6451 105.572 44.3326 107.467 30.0166 109.365C28.6714 109.673 28.1005 108.226 28.3788 107.119C34.3129 84.2063 35.0872 60.2754 30.6518 37.0043C30.4484 35.8585 31.0907 34.4111 32.4395 34.6559C46.6449 36.1103 60.8503 37.5683 75.0556 39.0228C76.301 39.1257 77.5463 40.2005 77.8175 41.4634C81.5892 61.3041 80.929 81.6557 75.8835 101.191C75.5195 102.454 74.2278 103.526 72.961 103.675Z" fill="#003889"/>
<path d="M89.9707 104.224C73.0035 106.679 56.0398 109.134 39.0726 111.589C38.3732 111.692 37.6988 111.156 37.5704 110.393C33.2848 84.7809 32.407 58.757 34.9548 32.9176C35.0333 32.1478 35.6685 31.5696 36.375 31.6228C53.4671 32.9424 70.5592 34.2621 87.6549 35.5817C88.3579 35.6349 88.8717 36.2096 88.8075 36.8659C86.6451 58.8847 87.3909 81.0384 91.0341 102.862C91.1447 103.515 90.6701 104.125 89.9707 104.224Z" fill="white"/>
<path d="M80.9108 54.1383C70.3915 53.9574 59.8722 53.7765 49.3528 53.5991C48.6784 53.5884 48.1468 53.0031 48.1717 52.2972C48.1967 51.5912 48.7712 51.0308 49.4421 51.0449C59.9578 51.3039 70.4736 51.5593 80.9929 51.8183C81.6637 51.836 82.1954 52.3681 82.174 53.0031C82.149 53.6381 81.5817 54.1489 80.9108 54.1383Z" fill="#E4ECF9"/>
<path d="M80.8145 58.7819C70.2916 58.7571 59.7687 58.7287 49.2458 58.7039C48.5714 58.7039 48.029 58.1256 48.0397 57.4197C48.0504 56.7138 48.6142 56.1426 49.2886 56.1497C59.8115 56.2526 70.3308 56.3555 80.8537 56.4584C81.5281 56.4654 82.0669 56.9905 82.0562 57.629C82.042 58.2675 81.4853 58.7855 80.8145 58.7819Z" fill="#E4ECF9"/>
<path d="M42.2949 59.1259C42.2664 59.1259 42.2379 59.1259 42.2057 59.1259C41.1852 59.1011 40.2004 58.647 39.4332 57.8488C38.6196 57.001 38.17 55.8765 38.1985 54.7697C38.2592 52.517 40.2182 50.5447 42.3949 50.5447C42.3949 50.5447 42.3949 50.5447 42.3984 50.5447C43.3976 50.5447 44.3574 50.9668 45.1103 51.7331C45.9382 52.5774 46.4163 53.7622 46.3842 54.9009C46.3557 55.951 45.9096 57.0152 45.1567 57.8204C44.3681 58.6612 43.3547 59.1259 42.2949 59.1259ZM42.3949 52.3681C41.2173 52.3681 40.0719 53.5564 40.0398 54.8122C40.0219 55.4295 40.2967 56.0893 40.7677 56.5824C41.1923 57.0294 41.7204 57.2812 42.2521 57.2919C42.2664 57.2919 42.2807 57.2919 42.2949 57.2919C43.5331 57.2919 44.518 55.99 44.5465 54.8477C44.5644 54.1914 44.2825 53.5032 43.7936 53.003C43.3904 52.5951 42.8944 52.3716 42.3949 52.3681C42.3984 52.3681 42.3984 52.3681 42.3949 52.3681Z" fill="#E4ECF9"/>
<path d="M80.8501 66.7565C70.3273 66.9941 59.8079 67.2318 49.285 67.4695C48.6106 67.4837 48.0504 66.9196 48.0397 66.2172C48.029 65.5113 48.5749 64.926 49.2458 64.9189C59.7687 64.7593 70.2916 64.5961 80.8145 64.4364C81.4889 64.4258 82.042 64.9366 82.0527 65.5752C82.0598 66.2102 81.521 66.7423 80.8501 66.7565Z" fill="#E4ECF9"/>
<path d="M80.9856 71.4C70.4698 71.7902 59.9505 72.184 49.4347 72.5742C48.7639 72.599 48.1894 72.0421 48.1644 71.3397C48.1394 70.6338 48.6747 70.0414 49.3455 70.0236C59.8648 69.7079 70.3842 69.3957 80.9035 69.08C81.5779 69.0587 82.1417 69.5624 82.1631 70.201C82.1881 70.836 81.6564 71.3752 80.9856 71.4Z" fill="#E4ECF9"/>
<path d="M42.3588 73.2767C41.3169 73.2767 40.2678 72.8155 39.4721 72.0032C38.6906 71.205 38.2267 70.1443 38.2018 69.0943C38.1768 68.0442 38.5836 66.9623 39.3258 66.1215C40.0894 65.256 41.1349 64.7345 42.1947 64.6955C43.1902 64.6564 44.1715 65.0396 44.9601 65.7739C45.8272 66.5827 46.3589 67.7427 46.3874 68.8779C46.416 70.0131 45.9414 71.2014 45.1171 72.0528C44.3713 72.8262 43.4079 73.2589 42.4124 73.2731C42.3909 73.2767 42.3731 73.2767 42.3588 73.2767ZM42.3267 66.5224C42.3053 66.5224 42.2839 66.5224 42.2625 66.5224C41.0885 66.5685 40.0073 67.7924 40.0394 69.0446C40.0716 70.2862 41.192 71.4427 42.3553 71.4427C42.3624 71.4427 42.3731 71.4427 42.3802 71.4427C42.8834 71.4356 43.3829 71.2014 43.7861 70.7828C44.275 70.2756 44.5605 69.5803 44.5426 68.9204C44.5248 68.2642 44.2108 67.5831 43.6969 67.1042C43.2902 66.7281 42.8049 66.5224 42.3267 66.5224Z" fill="#E4ECF9"/>
<path d="M81.4177 79.3641C70.9162 80.0203 60.4147 80.6731 49.9096 81.3293C49.2388 81.3719 48.6465 80.8291 48.6001 80.1268C48.5537 79.4244 49.0675 78.8177 49.7419 78.7823C60.2506 78.204 70.7556 77.6258 81.2642 77.0476C81.9351 77.0121 82.5167 77.5017 82.5595 78.1366C82.6023 78.7681 82.0921 79.3215 81.4177 79.3641Z" fill="#E4ECF9"/>
<path d="M81.7886 83.9934C71.2978 84.8022 60.807 85.611 50.3198 86.4198C49.649 86.473 49.0495 85.9409 48.9888 85.2385C48.9282 84.5361 49.4349 83.9224 50.1057 83.8763C60.6036 83.1455 71.098 82.4112 81.5959 81.6804C82.2667 81.6343 82.859 82.1132 82.9126 82.7482C82.9625 83.3832 82.4594 83.9437 81.7886 83.9934Z" fill="#E4ECF9"/>
<path d="M43.1331 87.406C42.1376 87.406 41.1242 86.991 40.332 86.2496C39.5149 85.4833 38.9975 84.4475 38.919 83.401C38.8405 82.3545 39.1937 81.2548 39.8967 80.3821C40.621 79.4846 41.6416 78.9206 42.7014 78.839C43.6933 78.761 44.6925 79.1051 45.5132 79.8039C46.4159 80.5737 47.0047 81.7089 47.0904 82.844C47.176 83.9792 46.7585 85.1853 45.977 86.0722C45.267 86.8775 44.3249 87.3493 43.3294 87.4025C43.258 87.4025 43.1938 87.406 43.1331 87.406ZM42.969 80.6553C42.9262 80.6553 42.8833 80.6553 42.8405 80.6588C41.6737 80.7475 40.6603 82.0104 40.7531 83.2555C40.8494 84.5078 42.0484 85.6323 43.2259 85.5685C43.7219 85.5401 44.2072 85.2882 44.589 84.859C45.0529 84.334 45.2991 83.6316 45.2491 82.9753C45.1992 82.3155 44.8459 81.6486 44.3071 81.1874C43.9003 80.8433 43.4293 80.6553 42.969 80.6553Z" fill="#E4ECF9"/>
<path d="M82.6198 91.929C72.1576 93.0003 61.6954 94.0717 51.2331 95.143C50.5623 95.2104 49.9485 94.696 49.8665 93.9936C49.7844 93.2948 50.2697 92.6669 50.9405 92.603C61.4135 91.6062 71.8828 90.6129 82.3558 89.6161C83.0266 89.5522 83.6297 90.017 83.7046 90.6519C83.7759 91.2869 83.2907 91.8616 82.6198 91.929Z" fill="#E4ECF9"/>
<path d="M83.2233 96.5406C72.7825 97.7644 62.3381 98.9883 51.8973 100.212C51.23 100.29 50.602 99.7829 50.5092 99.0841C50.4164 98.3852 50.8875 97.7538 51.5547 97.6793C62.0063 96.5299 72.4614 95.3841 82.9129 94.2348C83.5801 94.1603 84.1939 94.6179 84.2795 95.2493C84.3652 95.8808 83.8906 96.4625 83.2233 96.5406Z" fill="#E4ECF9"/>
<path d="M44.6107 101.486C42.5661 101.486 40.6214 99.7759 40.3502 97.6581C40.211 96.5584 40.5465 95.3948 41.2744 94.4725C41.9595 93.6034 42.8944 93.0606 43.9078 92.9435C44.9926 92.8158 46.0809 93.1812 46.973 93.9688C47.8008 94.6995 48.3503 95.7141 48.4823 96.757C48.6251 97.8886 48.2682 99.1125 47.526 100.035C46.8552 100.868 45.9381 101.379 44.9426 101.472C44.832 101.479 44.7214 101.486 44.6107 101.486ZM44.3253 94.7492C44.2575 94.7492 44.1897 94.7527 44.1219 94.7598C43.5973 94.8201 43.1014 95.1181 42.7231 95.6006C42.3021 96.1327 42.0987 96.8173 42.1772 97.4275C42.3377 98.6797 43.5974 99.7581 44.7749 99.6482C45.2673 99.6021 45.7348 99.3325 46.0916 98.889C46.5269 98.3463 46.741 97.6368 46.6589 96.9876C46.5198 95.8985 45.4921 94.7492 44.3253 94.7492Z" fill="#E4ECF9"/>
<path d="M43.1621 84.7278L42.6019 84.1424C42.1666 83.6884 41.956 83.4649 41.5278 83.0108L42.7196 81.8969C42.923 82.1133 43.0765 82.273 43.2299 82.4361C44.4859 81.2655 45.7955 80.07 47.13 78.8674L48.2291 80.0736C46.6911 81.4571 45.1889 82.837 43.758 84.1744L43.1621 84.7278Z" fill="#F4B545"/>
<path d="M42.3019 56.5434L41.7952 55.9084C41.4062 55.4188 41.2171 55.1812 40.8389 54.6952L42.127 53.6948C42.3054 53.9218 42.441 54.0921 42.5766 54.2624C44.1181 53.0634 45.5098 51.9956 46.8158 51.0094L47.8042 52.3042C46.3269 53.4181 44.7354 54.642 42.9442 56.0396L42.3019 56.5434Z" fill="#F4B545"/>
<path d="M44.6675 98.9033L44.0823 98.3428C43.622 97.9064 43.4008 97.69 42.9512 97.2573L44.0895 96.0902C44.3036 96.2995 44.4677 96.4555 44.6318 96.6116C45.8308 95.3949 47.0761 94.1462 48.3464 92.8939L49.499 94.0504C48.0324 95.4942 46.6015 96.9309 45.2384 98.325L44.6675 98.9033Z" fill="#F4B545"/>
<path d="M67.7299 29.9946C66.4881 29.8562 65.2499 29.7179 64.0082 29.5795C62.9627 26.4932 59.6334 23.8575 56.4434 23.4141C53.4175 22.9919 51.4014 25.3226 51.8653 28.2244C50.6235 28.086 49.3853 27.9477 48.1435 27.8093C47.6369 27.7526 47.33 28.1251 47.4584 28.643C48.0508 31.0943 48.5932 33.5526 49.0856 36.0287C49.1891 36.5502 49.6779 37.0078 50.181 37.0504C56.6718 37.6038 63.1589 38.1572 69.6496 38.7106C70.1563 38.7531 70.4882 38.3913 70.3954 37.9018C69.9315 35.5817 69.4248 33.2759 68.8682 30.9736C68.7469 30.4912 68.2366 30.0513 67.7299 29.9946Z" fill="#F4B545"/>
<g opacity="0.16">
<path d="M22.8439 91.326C16.0998 92.0816 9.35574 92.8336 2.61523 93.5892C2.89356 85.4975 4.46004 77.6542 7.36106 70.0875C12.0855 71.4355 16.8063 72.7836 21.5307 74.1316C21.0276 79.9423 21.4451 85.6536 22.8439 91.326Z" fill="#003889"/>
</g>
<path d="M24.7496 89.8076C18.0947 91.1202 11.4363 92.4327 4.7814 93.7453C4.37818 85.6571 5.27739 77.7144 7.53612 69.9314C12.3569 70.8821 17.1776 71.8328 21.9948 72.7835C21.9841 78.619 22.8798 84.2736 24.7496 89.8076Z" fill="white"/>
<path opacity="0.16" d="M16.5029 75.0893C17.0096 74.5714 17.0952 73.8371 16.6991 73.454C16.4029 73.1666 15.9212 73.156 15.4859 73.3795L14.0336 72.7658C13.9729 72.7409 13.9194 72.8048 13.9515 72.8615L14.7294 74.1883C14.5439 74.6104 14.5831 75.061 14.865 75.3341C15.2611 75.7172 15.9962 75.6073 16.5029 75.0893Z" fill="#003889"/>
<path d="M15.6501 70.2152L13.6983 72.8758C13.6519 72.9396 13.7125 73.0248 13.791 73.0035L17.2023 71.9534L15.6501 70.2152Z" fill="#3B82F4"/>
<path d="M17.0564 72.594C17.6362 72.2227 17.709 71.3088 17.2191 70.5529C16.7292 69.7969 15.8621 69.4852 15.2822 69.8566C14.7024 70.228 14.6296 71.1418 15.1195 71.8978C15.6094 72.6537 16.4766 72.9654 17.0564 72.594Z" fill="#C4D7F2"/>
<path d="M17.998 77.5406C17.8089 77.5406 17.6234 77.5123 17.4485 77.459C16.9668 77.31 16.7099 77.0121 16.4851 76.746C16.271 76.4977 16.089 76.2813 15.75 76.2139C15.2005 76.1075 14.6867 76.4764 14.2335 76.8028C13.8124 77.1043 13.4163 77.3881 13.0702 77.193C12.7598 77.0192 12.7348 76.6006 12.7134 76.2281C12.6991 75.9691 12.6813 75.6782 12.56 75.6286C12.4279 75.5754 12.1817 75.8095 11.9177 76.0578C11.675 76.2848 11.4038 76.5474 11.0684 76.7531C10.1621 77.3136 8.92386 77.3881 7.39307 76.973L7.46443 76.707C8.91673 77.1008 10.08 77.0369 10.9221 76.519C11.2325 76.3274 11.4966 76.0791 11.7285 75.8592C12.0854 75.5186 12.3708 75.2525 12.667 75.3732C12.9489 75.4902 12.9703 75.8556 12.9917 76.2103C13.0096 76.5261 13.031 76.8524 13.2094 76.9518C13.4021 77.0617 13.7161 76.8382 14.0765 76.5793C14.5511 76.2387 15.1434 75.8166 15.8107 75.9443C16.246 76.0294 16.4815 76.3026 16.7063 76.5686C16.9168 76.817 17.1345 77.0724 17.5413 77.1965C18.0944 77.3668 18.7545 77.2178 19.5038 76.7602L19.6501 76.9943C19.0471 77.3597 18.4976 77.5406 17.998 77.5406Z" fill="#15315E"/>
<path d="M14.116 83.0178C13.8127 83.0178 13.5522 82.9469 13.3952 82.7553C13.1276 82.4325 13.2846 81.9252 13.413 81.5173C13.4452 81.4144 13.4844 81.2867 13.5023 81.198C13.4166 81.2725 13.281 81.425 13.1704 81.5527C12.7172 82.0707 12.0357 82.8476 11.1365 82.9114C10.5584 82.9504 9.89114 82.6915 9.39515 82.2338C9.29524 82.1416 9.2096 82.0458 9.1311 81.9501C8.35678 82.3899 7.49325 82.6844 7.08647 82.8085L7.00439 82.546C7.3077 82.4538 8.09272 82.1913 8.83493 81.794C8.88132 81.7691 8.92414 81.7443 8.97052 81.7195C8.83136 81.4747 8.75643 81.2228 8.75643 80.971C8.75643 80.3502 9.19889 79.7577 9.60925 79.474C9.85189 79.3037 10.0803 79.2434 10.2515 79.3072C10.6441 79.4491 10.6226 80.1515 10.6226 80.1834C10.6012 80.8362 10.0446 81.386 9.36304 81.8117C9.42726 81.8898 9.49506 81.9642 9.57713 82.0387C10.0125 82.4431 10.6155 82.6808 11.1115 82.6454C11.8965 82.5886 12.5317 81.8614 12.9527 81.3789C13.2739 81.0135 13.4666 80.79 13.6664 80.9142C13.8484 81.0242 13.7699 81.2796 13.67 81.6024C13.5701 81.9288 13.4309 82.3757 13.6022 82.5815C13.8983 82.9398 15.0866 82.6453 16.05 82.1877C17.4238 81.5386 18.3444 80.5382 18.8975 79.9422C19.2936 79.513 19.4756 79.3179 19.6576 79.4349C19.8395 79.552 19.7325 79.811 19.5362 80.2792C19.3043 80.8397 18.951 81.684 19.265 82.0955C19.4542 82.3403 19.8681 82.4325 20.5032 82.3651L20.5318 82.6383C19.7932 82.7127 19.2936 82.5886 19.0438 82.2587C18.6299 81.7195 19.0046 80.8255 19.2793 80.1693C19.3328 80.038 19.3971 79.8855 19.4363 79.7719C19.3435 79.8606 19.2222 79.9919 19.1009 80.1231C18.5371 80.7333 17.5879 81.7549 16.1678 82.429C16.0108 82.5141 14.9189 83.0178 14.116 83.0178ZM10.1124 79.5555C10.041 79.5555 9.92326 79.591 9.77339 79.6974C9.40942 79.9529 9.03832 80.4708 9.03832 80.971C9.03832 81.1732 9.09898 81.3789 9.21317 81.5811C9.78409 81.2228 10.3336 80.7333 10.3515 80.1728C10.3586 79.9209 10.2837 79.6123 10.1623 79.5662C10.1481 79.5591 10.1302 79.5555 10.1124 79.5555Z" fill="#15315E"/>
<path d="M11.7465 89.7544C11.6252 89.7544 11.5145 89.726 11.4039 89.6657C10.7795 89.3216 10.858 88.2857 10.9365 87.2818C10.9936 86.5404 11.0507 85.7742 10.7616 85.6287C10.6474 85.572 10.3477 85.5649 9.64475 86.1679C8.92396 86.7887 7.93554 87.9133 6.70805 89.5167L6.48682 89.35C9.54841 85.352 10.4619 85.1711 10.8865 85.384C11.3397 85.611 11.2826 86.3985 11.2112 87.3067C11.1434 88.1793 11.0685 89.1726 11.5359 89.428C11.8535 89.6018 12.3138 89.3287 13.3201 88.7256C13.8803 88.3922 14.5761 87.9771 15.5146 87.4734C16.8491 86.7603 17.8268 86.3276 18.5048 86.1466C19.0793 85.9941 19.3398 86.0509 19.5396 86.136C20.1427 86.395 20.4567 86.9696 20.7386 87.4734C21.0276 87.9984 21.2774 88.4525 21.7662 88.5128C22.0695 88.5483 22.3978 88.4276 22.7475 88.1509L22.9188 88.3673C22.5084 88.6937 22.1088 88.832 21.7306 88.7859C21.1025 88.7079 20.7921 88.1474 20.4959 87.6082C20.2247 87.1186 19.9464 86.6114 19.4326 86.3879C19.2185 86.2956 18.7154 86.0792 15.6502 87.7146C14.7153 88.2112 14.023 88.6263 13.4664 88.9598C12.6278 89.4599 12.1354 89.7544 11.7465 89.7544Z" fill="#15315E"/>
<g opacity="0.16">
<path d="M27.5433 65.0467C22.38 65.6249 17.2131 66.2031 12.0498 66.7814C12.2639 60.584 13.4628 54.5782 15.6859 48.7817C19.3041 49.814 22.9224 50.8463 26.5371 51.8786C26.1517 56.3307 26.4728 60.7046 27.5433 65.0467Z" fill="#003889"/>
</g>
<path d="M29.0027 63.8867C23.9036 64.8906 18.8081 65.8981 13.709 66.902C13.4021 60.7082 14.0908 54.6243 15.8178 48.6647C19.511 49.3919 23.2006 50.1191 26.8938 50.8499C26.8831 55.3161 27.5682 59.6475 29.0027 63.8867Z" fill="white"/>
<path opacity="0.16" d="M22.6869 52.6129C23.0759 52.2156 23.1401 51.6551 22.8368 51.3607C22.6084 51.1408 22.2409 51.1337 21.909 51.3039L20.7957 50.8357C20.7493 50.8179 20.7065 50.8641 20.7315 50.9066L21.3274 51.9212C21.1882 52.244 21.2132 52.5881 21.4309 52.7974C21.7377 53.0918 22.298 53.0103 22.6869 52.6129Z" fill="#003889"/>
<path d="M22.0339 48.8811L20.5388 50.9173C20.5031 50.967 20.5495 51.0344 20.6102 51.0131L23.2222 50.2078L22.0339 48.8811Z" fill="#3B82F4"/>
<path d="M23.1102 50.7005C23.5542 50.4161 23.6104 49.717 23.2358 49.1389C22.8611 48.5609 22.1975 48.3228 21.7536 48.6072C21.3096 48.8915 21.2534 49.5907 21.628 50.1687C22.0027 50.7468 22.6663 50.9849 23.1102 50.7005Z" fill="#C4D7F2"/>
<path d="M23.8323 54.4895C23.686 54.4895 23.5469 54.4682 23.4113 54.4292C23.0437 54.3157 22.8475 54.0851 22.6726 53.8829C22.5085 53.6913 22.3693 53.5246 22.1088 53.4749C21.6878 53.3933 21.2953 53.6771 20.9456 53.9255C20.6244 54.156 20.3211 54.3724 20.0535 54.2234C19.8144 54.0922 19.7966 53.7694 19.7788 53.4856C19.768 53.2869 19.7538 53.0634 19.661 53.0244C19.5611 52.9818 19.372 53.1628 19.1686 53.3543C18.983 53.5281 18.7761 53.7268 18.5156 53.8864C17.8198 54.3157 16.8742 54.3724 15.7002 54.0532L15.7573 53.851C16.8706 54.1525 17.7627 54.1064 18.405 53.7091C18.644 53.5601 18.8439 53.3721 19.0223 53.2018C19.297 52.9428 19.5147 52.7371 19.7395 52.8293C19.9572 52.918 19.9714 53.1982 19.9893 53.4714C20.0036 53.7126 20.0178 53.9609 20.1534 54.039C20.3033 54.1206 20.5424 53.9503 20.8171 53.7516C21.1811 53.4891 21.6343 53.1663 22.1445 53.2656C22.4799 53.3295 22.6584 53.5388 22.8296 53.7445C22.9902 53.9361 23.1579 54.1312 23.4684 54.227C23.8894 54.3547 24.3961 54.2447 24.9742 53.8935L25.0848 54.0744C24.6352 54.3511 24.2141 54.4895 23.8323 54.4895Z" fill="#15315E"/>
<path d="M20.8599 58.6861C20.628 58.6861 20.4282 58.6329 20.3068 58.4875C20.1034 58.2392 20.2212 57.8525 20.3175 57.5403C20.3425 57.4623 20.3711 57.363 20.3853 57.2955C20.3175 57.3523 20.2176 57.4694 20.132 57.5687C19.7859 57.9625 19.2649 58.562 18.5762 58.6116C18.1337 58.6436 17.6199 58.4449 17.2417 58.0902C17.1667 58.0192 17.0989 57.9483 17.0418 57.8702C16.4495 58.2072 15.7894 58.4307 15.4754 58.5265L15.4111 58.3243C15.9178 58.1682 16.4602 57.9518 16.917 57.6893C16.8099 57.5048 16.7528 57.3097 16.7528 57.1146C16.7528 56.6393 17.0918 56.1852 17.4058 55.9688C17.5914 55.8376 17.7662 55.795 17.8982 55.8411C18.198 55.9511 18.1837 56.4867 18.1837 56.5116C18.1659 57.0118 17.7412 57.4304 17.2203 57.7603C17.2666 57.8206 17.3237 57.8773 17.3844 57.9341C17.7162 58.2427 18.1801 58.4236 18.5584 58.3988C19.1578 58.3562 19.6467 57.7993 19.9714 57.4304C20.2176 57.1501 20.3639 56.9798 20.5174 57.0756C20.6565 57.1607 20.5959 57.3559 20.5174 57.6042C20.4389 57.8525 20.3354 58.1966 20.4674 58.3562C20.6958 58.6294 21.6021 58.4059 22.3408 58.0547C23.3898 57.5581 24.0999 56.7918 24.521 56.3342C24.8243 56.0043 24.9634 55.8553 25.1026 55.9475C25.2418 56.0398 25.1597 56.2349 25.0098 56.5932C24.8314 57.0224 24.5602 57.668 24.8029 57.9838C24.9456 58.1718 25.2668 58.2427 25.752 58.1895L25.7735 58.3988C25.2097 58.4556 24.8243 58.3598 24.6352 58.1079C24.3212 57.6964 24.6066 57.0082 24.8171 56.508C24.86 56.4087 24.9064 56.2916 24.9385 56.2029C24.8671 56.2703 24.7743 56.3732 24.6816 56.4725C24.2498 56.9408 23.5219 57.7248 22.4371 58.2392C22.3122 58.2995 21.4737 58.6861 20.8599 58.6861ZM17.7948 56.0362C17.7412 56.0362 17.6485 56.0646 17.5343 56.1462C17.2559 56.3413 16.9705 56.7386 16.9705 57.1217C16.9705 57.2743 17.0169 57.4339 17.1025 57.5864C17.6056 57.2707 17.9625 56.8982 17.9767 56.508C17.9839 56.3165 17.9268 56.0788 17.8304 56.0433C17.8197 56.0362 17.809 56.0362 17.7948 56.0362Z" fill="#15315E"/>
<path d="M19.0434 63.8441C18.9507 63.8441 18.865 63.8228 18.783 63.7767C18.3048 63.5142 18.3655 62.7196 18.4261 61.9498C18.4689 61.3822 18.5153 60.7933 18.2941 60.6834C18.0729 60.5699 17.3735 60.8075 15.1897 63.6597L15.022 63.532C17.3663 60.4705 18.0693 60.3322 18.3904 60.4954C18.7401 60.6692 18.6937 61.2722 18.6402 61.9675C18.5903 62.638 18.5296 63.3972 18.89 63.5923C19.1326 63.7271 19.4859 63.5142 20.2567 63.0566C20.6849 62.8012 21.2201 62.4819 21.9373 62.0988C24.3745 60.7969 24.792 60.9778 25.0203 61.0736C25.4806 61.2722 25.7233 61.7121 25.9374 62.0988C26.1586 62.4997 26.3513 62.8473 26.7224 62.8934C26.9543 62.9218 27.2077 62.8296 27.4753 62.6167L27.6073 62.7799C27.2933 63.0282 26.9865 63.1382 26.6974 63.1027C26.2157 63.0424 25.9802 62.6132 25.7518 62.1981C25.5449 61.8221 25.3308 61.4354 24.9347 61.2652C24.7705 61.1942 24.3852 61.0275 22.0372 62.2797C21.3236 62.6628 20.7919 62.9786 20.3637 63.234C19.7178 63.6206 19.3432 63.8441 19.0434 63.8441Z" fill="#15315E"/>
<g opacity="0.16">
<path d="M18.9294 53.0032C15.2505 54.3512 11.568 55.6992 7.88909 57.0508C6.92208 52.4711 6.71155 47.8559 7.28962 43.2087C10.1264 43.3187 12.9668 43.4251 15.8036 43.5351C16.3317 46.8661 17.3593 50.0127 18.9294 53.0032Z" fill="#003889"/>
</g>
<path d="M19.7893 51.8892C16.2353 53.5388 12.6813 55.1883 9.12724 56.8379C7.77842 52.3539 7.17895 47.7707 7.36807 43.0952C10.2049 42.9674 13.0417 42.8397 15.8784 42.712C16.6849 45.9899 17.973 49.0406 19.7893 51.8892Z" fill="white"/>
<path opacity="0.16" d="M13.1204 44.7589C13.331 44.3971 13.281 43.9749 13.0027 43.8153C12.7957 43.6947 12.5245 43.755 12.3104 43.9394L11.4112 43.794C11.3755 43.7869 11.3506 43.833 11.3791 43.8578L12 44.4964C11.9572 44.7589 12.0392 45.0072 12.2355 45.1207C12.5102 45.2839 12.9063 45.1207 13.1204 44.7589Z" fill="#003889"/>
<path d="M11.9641 42.1409L11.2398 43.9004C11.2219 43.943 11.2683 43.982 11.3076 43.9607L13.0774 42.9036L11.9641 42.1409Z" fill="#3B82F4"/>
<path d="M13.0868 43.282C13.3603 42.9944 13.2743 42.4721 12.8948 42.1155C12.5153 41.7588 11.986 41.7028 11.7125 41.9904C11.439 42.278 11.5249 42.8003 11.9045 43.1569C12.284 43.5136 12.8133 43.5696 13.0868 43.282Z" fill="#C4D7F2"/>
<path d="M8.39927 47.0718C8.35645 47.0718 8.31006 47.0718 8.26367 47.0718L8.26724 46.9122C9.1379 46.9335 9.78376 46.7384 10.1798 46.334C10.3297 46.185 10.4403 46.0076 10.5402 45.8515C10.6937 45.6103 10.815 45.4223 11.0006 45.4507C11.1754 45.4755 11.2396 45.6812 11.3003 45.8763C11.3538 46.0502 11.4109 46.2311 11.5251 46.263C11.65 46.2985 11.7927 46.1282 11.9604 45.9331C12.1817 45.6777 12.4528 45.3584 12.8454 45.3371C13.1023 45.323 13.27 45.4471 13.4341 45.5642C13.5876 45.6741 13.7446 45.7877 13.9908 45.8019C14.3226 45.8196 14.6759 45.6493 15.0327 45.2875L15.1469 45.401C14.7544 45.7948 14.3619 45.9828 13.9836 45.9615C13.691 45.9437 13.5055 45.8125 13.3449 45.6919C13.1915 45.5819 13.0595 45.4861 12.8561 45.4932C12.5349 45.5074 12.2958 45.7877 12.0853 46.0324C11.8926 46.2595 11.7071 46.4723 11.4858 46.412C11.286 46.3588 11.2146 46.1247 11.1504 45.9189C11.1076 45.777 11.0576 45.6138 10.9827 45.6032C10.9006 45.5926 10.7936 45.7557 10.683 45.9331C10.5795 46.0963 10.4617 46.2772 10.3012 46.4404C9.88724 46.859 9.24852 47.0718 8.39927 47.0718Z" fill="#15315E"/>
<path d="M8.90629 50.3851L8.82422 50.2503C9.16677 50.0445 9.52717 49.7891 9.81264 49.516C9.70202 49.3989 9.62352 49.2641 9.58783 49.1257C9.50219 48.7781 9.6699 48.3843 9.85902 48.1679C9.97321 48.0402 10.091 47.9764 10.1944 47.987C10.4335 48.0119 10.5192 48.4092 10.5227 48.4269C10.6012 48.7958 10.3657 49.179 10.041 49.5124C10.0874 49.5479 10.1374 49.5798 10.1909 49.6117C10.4906 49.7785 10.8617 49.8281 11.1365 49.743C11.5682 49.6046 11.8252 49.108 11.9964 48.7781C12.1249 48.5298 12.2034 48.3772 12.3319 48.4198C12.4496 48.4588 12.4389 48.6114 12.4282 48.8065C12.4175 49.0016 12.3996 49.2712 12.5281 49.367C12.7458 49.5266 13.3702 49.2002 13.8484 48.81C14.5299 48.2566 14.9082 47.5684 15.1365 47.1605C15.3007 46.866 15.3756 46.7312 15.4934 46.7738C15.6111 46.8164 15.5861 46.976 15.5433 47.2633C15.4898 47.6074 15.4077 48.1325 15.6432 48.3205C15.7824 48.434 16.0286 48.4269 16.3747 48.3027L16.4282 48.4517C16.025 48.5972 15.7253 48.5936 15.5397 48.4446C15.2329 48.1999 15.3185 47.6429 15.3827 47.2385C15.397 47.1569 15.4113 47.0647 15.4149 46.9937C15.3756 47.0541 15.3256 47.1463 15.2757 47.2385C15.0438 47.6571 14.6548 48.3631 13.9483 48.9342C13.8555 49.0087 13.1526 49.5692 12.678 49.5692C12.5852 49.5692 12.4996 49.5479 12.4318 49.4947C12.2355 49.3492 12.2533 49.0442 12.2676 48.7994C12.2712 48.7391 12.2748 48.661 12.2712 48.6078C12.2319 48.661 12.1784 48.7639 12.1356 48.8526C11.9536 49.2038 11.6789 49.7359 11.1829 49.8955C10.8653 49.9984 10.4514 49.9452 10.1088 49.7536C10.041 49.7146 9.97678 49.6756 9.92325 49.6295C9.55929 49.9771 9.11682 50.2609 8.90629 50.3851ZM10.173 48.1431C10.1338 48.1431 10.066 48.175 9.98035 48.2708C9.80907 48.4624 9.67347 48.8065 9.74484 49.0867C9.77338 49.2002 9.83405 49.3067 9.92682 49.4024C10.2373 49.0796 10.4335 48.7462 10.3729 48.4553C10.3443 48.3134 10.2587 48.1502 10.1837 48.1396C10.1766 48.1431 10.1766 48.1431 10.173 48.1431Z" fill="#15315E"/>
<path d="M9.62677 54.1986L9.48047 54.1348C10.6437 51.4707 11.1326 51.2436 11.4002 51.304C11.6857 51.3714 11.7642 51.8183 11.8498 52.3363C11.9355 52.8364 12.0282 53.404 12.328 53.4821C12.5314 53.5353 12.749 53.3189 13.2307 52.8435C13.4984 52.5775 13.8302 52.2511 14.2905 51.8396C15.8392 50.449 16.1817 50.5058 16.3637 50.5377C16.7384 50.6016 16.9953 50.8783 17.2237 51.1266C17.4592 51.382 17.6626 51.6019 17.9445 51.57C18.1193 51.5487 18.287 51.4352 18.444 51.233L18.5725 51.3288C18.3869 51.5665 18.1835 51.7013 17.9623 51.7261C17.5983 51.7687 17.3486 51.4955 17.1059 51.233C16.8847 50.9953 16.6599 50.747 16.3387 50.6938C16.2067 50.6725 15.8927 50.6193 14.4011 51.9567C13.948 52.3646 13.6161 52.691 13.3485 52.9535C12.8204 53.475 12.5813 53.7091 12.2887 53.6311C11.8926 53.5246 11.7927 52.9322 11.6964 52.3575C11.625 51.9318 11.5501 51.4955 11.3681 51.4529C11.1754 51.421 10.708 51.719 9.62677 54.1986Z" fill="#15315E"/>
<path d="M122.467 82.6525C127.059 82.6525 130.781 78.9519 130.781 74.387C130.781 69.822 127.059 66.1215 122.467 66.1215C117.875 66.1215 114.153 69.822 114.153 74.387C114.153 78.9519 117.875 82.6525 122.467 82.6525Z" fill="white"/>
<path d="M37.7988 25.5425C43.7641 25.5425 48.6 20.7349 48.6 14.8045C48.6 8.874 43.7641 4.06641 37.7988 4.06641C31.8334 4.06641 26.9976 8.874 26.9976 14.8045C26.9976 20.7349 31.8334 25.5425 37.7988 25.5425Z" fill="white"/>
<path d="M71.7901 17.3764C74.224 17.3764 76.197 15.4149 76.197 12.9953C76.197 10.5757 74.224 8.61426 71.7901 8.61426C69.3563 8.61426 67.3833 10.5757 67.3833 12.9953C67.3833 15.4149 69.3563 17.3764 71.7901 17.3764Z" fill="#C4D7F2"/>
<path d="M105.561 65.7028C107.248 65.7028 108.615 64.3433 108.615 62.6662C108.615 60.9892 107.248 59.6296 105.561 59.6296C103.874 59.6296 102.506 60.9892 102.506 62.6662C102.506 64.3433 103.874 65.7028 105.561 65.7028Z" fill="#C4D7F2"/>
<path d="M9.01434 24.9447C9.89224 24.0719 9.89224 22.6569 9.01434 21.7841C8.13644 20.9113 6.71308 20.9113 5.83518 21.7841C4.95728 22.6569 4.95728 24.0719 5.83518 24.9447C6.71308 25.8174 8.13644 25.8174 9.01434 24.9447Z" fill="#F4B545"/>
<path d="M16.9493 101.276C18.3525 101.276 19.4899 100.146 19.4899 98.7506C19.4899 97.3557 18.3525 96.2249 16.9493 96.2249C15.5462 96.2249 14.4087 97.3557 14.4087 98.7506C14.4087 100.146 15.5462 101.276 16.9493 101.276Z" fill="#C4D7F2"/>
<path d="M103.441 111.814H78.1364C77.4665 111.814 76.9229 111.264 76.9229 110.587V109.209C76.9229 108.532 77.4665 107.982 78.1364 107.982H103.441C104.111 107.982 104.655 108.532 104.655 109.209V110.587C104.655 111.264 104.111 111.814 103.441 111.814Z" fill="#3B82F4"/>
<path d="M109.552 63.9475C109.552 63.9758 109.552 64.0077 109.548 64.0361L109.422 66.6411L109.085 73.6943L107.423 108.361C107.381 109.212 106.672 109.896 105.837 109.896H75.745C74.9103 109.896 74.1983 109.212 74.1598 108.361L72.0694 64.8158L72.0309 64.0361C72.0309 64.0042 72.0273 63.9758 72.0309 63.9475C72.0203 62.9019 72.7358 62.0654 73.6582 62.0654H107.921C108.847 62.0654 109.562 62.9019 109.552 63.9475Z" fill="#B8D3FF"/>
<path d="M99.9422 105.026C99.2057 105.026 98.6235 104.413 98.641 103.654L99.3951 69.8558C99.4161 68.9413 100.093 68.1935 100.907 68.1935C101.72 68.1935 102.359 68.9378 102.331 69.8558L101.317 103.654C101.292 104.413 100.679 105.026 99.9422 105.026Z" fill="#3B82F4"/>
<path opacity="0.25" d="M102.324 69.8558L101.311 103.654C101.29 104.413 100.673 105.026 99.9361 105.026C99.7817 105.026 99.6309 104.998 99.4941 104.948C100.017 104.76 100.403 104.253 100.417 103.654L101.342 69.8558C101.356 69.3985 101.202 68.9839 100.943 68.6826C100.792 68.5089 100.609 68.3742 100.403 68.2892C100.557 68.2289 100.725 68.1935 100.897 68.1935C101.304 68.1935 101.665 68.3813 101.925 68.6826C102.188 68.9839 102.339 69.3985 102.324 69.8558Z" fill="#1C478C"/>
<path d="M90.7898 105.026C90.0533 105.026 89.4535 104.413 89.4535 103.654L89.3237 69.8558C89.3202 68.9413 89.9761 68.1935 90.7898 68.1935C91.6035 68.1935 92.2593 68.9378 92.2558 69.8558L92.126 103.654C92.126 104.413 91.5263 105.026 90.7898 105.026Z" fill="#3B82F4"/>
<path opacity="0.25" d="M92.2554 69.8558L92.1256 103.654C92.1221 104.413 91.5224 105.026 90.7894 105.026C90.635 105.026 90.4842 104.998 90.3439 104.948C90.863 104.76 91.2348 104.253 91.2348 103.654L91.2769 69.8558C91.2769 69.3985 91.112 68.9839 90.849 68.6826C90.6947 68.5089 90.5088 68.3742 90.2983 68.2892C90.4527 68.2289 90.6175 68.1935 90.7894 68.1935C91.1962 68.1935 91.5645 68.3813 91.8275 68.6826C92.0941 68.9839 92.2589 69.3985 92.2554 69.8558Z" fill="#1C478C"/>
<path d="M81.6393 105.026C80.9028 105.026 80.289 104.413 80.2645 103.654L79.2509 69.8558C79.2228 68.9413 79.8612 68.1935 80.6748 68.1935C81.4885 68.1935 82.1654 68.9378 82.1865 69.8558L82.9405 103.654C82.9581 104.413 82.3724 105.026 81.6393 105.026Z" fill="#3B82F4"/>
<path opacity="0.25" d="M82.1847 69.8558L82.9387 103.654C82.9563 104.413 82.3741 105.026 81.6376 105.026C81.4832 105.026 81.3324 104.998 81.1921 104.948C81.7042 104.76 82.0619 104.253 82.0479 103.654L81.2062 69.8558C81.1956 69.3985 81.0203 68.9839 80.7467 68.6826C80.5889 68.5089 80.396 68.3742 80.1855 68.2892C80.3364 68.2289 80.5012 68.1935 80.6731 68.1935C81.0799 68.1935 81.4517 68.3813 81.7252 68.6826C81.9988 68.9839 82.1742 69.3985 82.1847 69.8558Z" fill="#1C478C"/>
<path opacity="0.25" d="M109.551 63.9475C109.551 63.9758 109.551 64.0077 109.547 64.0361L109.421 66.6411L99.1306 66.1379L72.065 64.8158L72.0265 64.0361C72.0265 64.0042 72.023 63.9758 72.0265 63.9475C72.0159 62.9019 72.7314 62.0654 73.6538 62.0654H107.92C108.846 62.0654 109.561 62.9019 109.551 63.9475Z" fill="#1C478C"/>
<path d="M99.8139 59.6306L98.9581 57.9647L98.2987 56.6888L96.5521 53.2969C96.2856 52.7759 95.6332 52.5916 95.1141 52.5916H86.4617C85.9426 52.5916 85.2938 52.7759 85.0237 53.2969L83.2771 56.6888L81.762 59.6306C81.6568 59.8361 81.6007 60.0523 81.6042 60.265C81.6042 60.4883 81.6638 60.708 81.783 60.9065C81.8707 61.0518 81.9865 61.1794 82.1197 61.2787C82.3898 61.4807 82.7405 61.5906 83.1438 61.5906H98.432C99.0387 61.5906 99.5333 61.3425 99.7928 60.9065C100.028 60.5202 100.035 60.0559 99.8139 59.6306ZM83.5963 59.8468L85.2237 56.6852L86.4337 54.3318C86.4407 54.3318 86.4512 54.3318 86.4617 54.3318H95.1176C95.1282 54.3318 95.1352 54.3318 95.1457 54.3318L96.3557 56.6852L97.9831 59.8468H83.5963Z" fill="#F4B545"/>
<path d="M111.427 60.974V62.3811C111.427 63.246 110.736 63.9442 109.88 63.9442H71.7C70.8442 63.9442 70.1533 63.2424 70.1533 62.3811V60.974C70.1533 60.694 70.1814 60.4211 70.2305 60.1553C70.2936 59.8257 70.3918 59.5138 70.5251 59.2161C71.188 57.7239 72.6715 56.689 74.3936 56.689H107.186C109.529 56.689 111.427 58.6064 111.427 60.974Z" fill="#3B82F4"/>
</g>
<defs>
<clipPath id="clip0_3757_35469">
<rect width="130" height="114" fill="white" transform="translate(0.78125 4.06641)"/>
</clipPath>
</defs>
</svg>
